<?xml version="1.0" encoding="UTF-8" standalone="no"?>
<svg width="225px" height="75px" viewBox="0 0 225 75" version="1.1" xmlns="http://www.w3.org/2000/svg" xmlns:xlink="http://www.w3.org/1999/xlink" xmlns:sketch="http://www.bohemiancoding.com/sketch/ns">
    <!-- Generator: Sketch 3.0.1 (7597) - http://www.bohemiancoding.com/sketch -->
    <title>two_circles</title>
    <description>Created with Sketch.</description>
    <defs></defs>
    <g id="Page-1" stroke="none" stroke-width="1" fill="none" fill-rule="evenodd" sketch:type="MSPage">
        <g id="two_circles" sketch:type="MSLayerGroup" transform="translate(1.000000, 1.000000)" stroke="#9B9B9B" fill="#9B9B9B">
            <g id="Page-1" sketch:type="MSShapeGroup">
                <g id="Oval-1-+-Oval-2">
                    <path d="M34.5,72 C53.5538239,72 69,55.882251 69,36 C69,16.117749 53.5538239,0 34.5,0 C15.4461761,0 0,16.117749 0,36 C0,55.882251 15.4461761,72 34.5,72 L34.5,72 Z" id="Oval-1"></path>
                    <path d="M188.5,73 C207.553824,73 223,56.882251 223,37 C223,17.117749 207.553824,1 188.5,1 C169.446176,1 154,17.117749 154,37 C154,56.882251 169.446176,73 188.5,73 L188.5,73 Z" id="Oval-1-2"></path>
                    <path d="M111.5,72 C130.553824,72 146,55.882251 146,36 C146,16.117749 130.553824,0 111.5,0 C92.4461761,0 77,16.117749 77,36 C77,55.882251 92.4461761,72 111.5,72 L111.5,72 Z" id="Oval-2"></path>
                </g>
            </g>
        </g>
    </g>
</svg>